<?xml version="1.0" encoding="UTF-8" standalone="no"?><!-- Generator: Gravit.io --><svg xmlns="http://www.w3.org/2000/svg" xmlns:xlink="http://www.w3.org/1999/xlink" style="isolation:isolate" viewBox="0 0 1920 1080" width="1920pt" height="1080pt"><defs><clipPath id="_clipPath_E3HeCEL3OuPvzg1iKNpDVMvkUNoS85uk"><rect width="1920" height="1080"/></clipPath></defs><g clip-path="url(#_clipPath_E3HeCEL3OuPvzg1iKNpDVMvkUNoS85uk)"><rect x="0" y="0" width="1920" height="1080" transform="matrix(1,0,0,1,0,0)" fill="rgb(255,255,255)"/><g><linearGradient id="_lgradient_61" x1="0.5" y1="0" x2="0.4999999999999998" y2="1.0954999999999995" gradientTransform="matrix(19.2,0,0,18.08,1580.2,235.64)" gradientUnits="userSpaceOnUse"><stop offset="0%" stop-opacity="1" style="stop-color:rgb(109,199,255)"/><stop offset="100%" stop-opacity="1" style="stop-color:rgb(230,171,255)"/></linearGradient><rect x="1580.2" y="235.64" width="19.2" height="18.08" transform="matrix(1,0,0,1,0,0)" fill="url(#_lgradient_61)"/><linearGradient id="_lgradient_62" x1="0.5" y1="0" x2="0.4999999999999998" y2="1.15625" gradientTransform="matrix(19.2,0,0,18.08,1666.6,154.28)" gradientUnits="userSpaceOnUse"><stop offset="0%" stop-opacity="1" style="stop-color:rgb(109,199,255)"/><stop offset="100%" stop-opacity="1" style="stop-color:rgb(230,171,255)"/></linearGradient><rect x="1666.6" y="154.28" width="19.2" height="18.08" transform="matrix(1,0,0,1,0,0)" fill="url(#_lgradient_62)"/><linearGradient id="_lgradient_63" x1="0.5" y1="-0.0033400000000000096" x2="0.49999999999999983" y2="1.01044" gradientTransform="matrix(240,0,0,226,1513,91)" gradientUnits="userSpaceOnUse"><stop offset="0%" stop-opacity="1" style="stop-color:rgb(26,109,255)"/><stop offset="100%" stop-opacity="1" style="stop-color:rgb(200,34,255)"/></linearGradient><path d=" M 1729 91 L 1537 91 C 1523.766 91 1513 101.138 1513 113.6 L 1513 294.4 C 1513 306.862 1523.766 317 1537 317 L 1729 317 C 1742.234 317 1753 306.862 1753 294.4 L 1753 113.6 C 1753 101.138 1742.234 91 1729 91 Z  M 1743.4 294.4 C 1743.4 301.876 1736.939 307.96 1729 307.96 L 1537 307.96 C 1529.061 307.96 1522.6 301.876 1522.6 294.4 L 1522.6 113.6 C 1522.6 106.124 1529.061 100.04 1537 100.04 L 1729 100.04 C 1736.939 100.04 1743.4 106.124 1743.4 113.6 L 1743.4 294.4 Z " fill="url(#_lgradient_63)"/><linearGradient id="_lgradient_64" x1="0.5" y1="-1.6354375" x2="0.49999999999999944" y2="1.532625" gradientTransform="matrix(76.8,0,0,72.32,1551.4,208.52)" gradientUnits="userSpaceOnUse"><stop offset="0%" stop-opacity="1" style="stop-color:rgb(26,109,255)"/><stop offset="100%" stop-opacity="1" style="stop-color:rgb(200,34,255)"/></linearGradient><path d=" M 1618.6 208.52 L 1561 208.52 C 1555.706 208.52 1551.4 212.574 1551.4 217.56 L 1551.4 271.8 C 1551.4 276.786 1555.706 280.84 1561 280.84 L 1618.6 280.84 C 1623.894 280.84 1628.2 276.786 1628.2 271.8 L 1628.2 217.56 C 1628.2 212.574 1623.894 208.52 1618.6 208.52 Z  M 1561 271.8 L 1561 217.56 L 1618.6 217.56 L 1618.61 271.8 L 1561 271.8 Z " fill="url(#_lgradient_64)"/><linearGradient id="_lgradient_65" x1="0.5" y1="-3.770875" x2="0.49999999999999883" y2="2.56525" gradientTransform="matrix(38.4,0,0,36.16,1570.6,226.6)" gradientUnits="userSpaceOnUse"><stop offset="0%" stop-opacity="1" style="stop-color:rgb(26,109,255)"/><stop offset="100%" stop-opacity="1" style="stop-color:rgb(200,34,255)"/></linearGradient><path d=" M 1599.4 226.6 L 1580.2 226.6 C 1574.906 226.6 1570.6 230.654 1570.6 235.64 L 1570.6 253.72 C 1570.6 258.706 1574.906 262.76 1580.2 262.76 L 1599.4 262.76 C 1604.694 262.76 1609 258.706 1609 253.72 L 1609 235.64 C 1609 230.654 1604.694 226.6 1599.4 226.6 Z  M 1580.2 253.72 L 1580.2 235.64 L 1599.4 235.64 L 1599.41 253.72 L 1580.2 253.72 Z " fill="url(#_lgradient_65)"/><linearGradient id="_lgradient_66" x1="0.5" y1="-0.5104375" x2="0.49999999999999944" y2="2.657625" gradientTransform="matrix(76.8,0,0,72.32,1637.8,127.16)" gradientUnits="userSpaceOnUse"><stop offset="0%" stop-opacity="1" style="stop-color:rgb(26,109,255)"/><stop offset="100%" stop-opacity="1" style="stop-color:rgb(200,34,255)"/></linearGradient><path d=" M 1705 127.16 L 1647.4 127.16 C 1642.106 127.16 1637.8 131.214 1637.8 136.2 L 1637.8 190.44 C 1637.8 195.426 1642.106 199.48 1647.4 199.48 L 1705 199.48 C 1710.294 199.48 1714.6 195.426 1714.6 190.44 L 1714.6 136.2 C 1714.6 131.214 1710.294 127.16 1705 127.16 Z  M 1647.4 190.44 L 1647.4 136.2 L 1705 136.2 L 1705.01 190.44 L 1647.4 190.44 Z " fill="url(#_lgradient_66)"/><linearGradient id="_lgradient_67" x1="0.5" y1="-1.520875" x2="0.49999999999999883" y2="4.81525" gradientTransform="matrix(38.4,0,0,36.16,1657,145.24)" gradientUnits="userSpaceOnUse"><stop offset="0%" stop-opacity="1" style="stop-color:rgb(26,109,255)"/><stop offset="100%" stop-opacity="1" style="stop-color:rgb(200,34,255)"/></linearGradient><path d=" M 1685.8 145.24 L 1666.6 145.24 C 1661.306 145.24 1657 149.294 1657 154.28 L 1657 172.36 C 1657 177.346 1661.306 181.4 1666.6 181.4 L 1685.8 181.4 C 1691.094 181.4 1695.4 177.346 1695.4 172.36 L 1695.4 154.28 C 1695.4 149.294 1691.094 145.24 1685.8 145.24 Z  M 1666.6 172.36 L 1666.6 154.28 L 1685.8 154.28 L 1685.81 172.36 L 1666.6 172.36 Z " fill="url(#_lgradient_67)"/><linearGradient id="_lgradient_68" x1="0.5" y1="-0.5104375" x2="0.49999999999999944" y2="2.657625" gradientTransform="matrix(76.8,0,0,72.32,1551.4,127.16)" gradientUnits="userSpaceOnUse"><stop offset="0%" stop-opacity="1" style="stop-color:rgb(26,109,255)"/><stop offset="100%" stop-opacity="1" style="stop-color:rgb(200,34,255)"/></linearGradient><path d=" M 1618.6 127.16 L 1561 127.16 C 1555.706 127.16 1551.4 131.214 1551.4 136.2 L 1551.4 190.44 C 1551.4 195.426 1555.706 199.48 1561 199.48 L 1618.6 199.48 C 1623.894 199.48 1628.2 195.426 1628.2 190.44 L 1628.2 136.2 C 1628.2 131.214 1623.894 127.16 1618.6 127.16 Z  M 1561 190.44 L 1561 136.2 L 1618.6 136.2 L 1618.61 190.44 L 1561 190.44 Z " fill="url(#_lgradient_68)"/><linearGradient id="_lgradient_69" x1="0.5" y1="-1.520875" x2="0.49999999999999883" y2="4.81525" gradientTransform="matrix(38.4,0,0,36.16,1570.6,145.24)" gradientUnits="userSpaceOnUse"><stop offset="0%" stop-opacity="1" style="stop-color:rgb(26,109,255)"/><stop offset="100%" stop-opacity="1" style="stop-color:rgb(200,34,255)"/></linearGradient><path d=" M 1599.4 145.24 L 1580.2 145.24 C 1574.906 145.24 1570.6 149.294 1570.6 154.28 L 1570.6 172.36 C 1570.6 177.346 1574.906 181.4 1580.2 181.4 L 1599.4 181.4 C 1604.694 181.4 1609 177.346 1609 172.36 L 1609 154.28 C 1609 149.294 1604.694 145.24 1599.4 145.24 Z  M 1580.2 172.36 L 1580.2 154.28 L 1599.4 154.28 L 1599.41 172.36 L 1580.2 172.36 Z " fill="url(#_lgradient_69)"/><linearGradient id="_lgradient_70" x1="0.5" y1="-2.6167000000000002" x2="0.49999999999999906" y2="2.4522" gradientTransform="matrix(38.4,0,0,45.2,1637.8,208.52)" gradientUnits="userSpaceOnUse"><stop offset="0%" stop-opacity="1" style="stop-color:rgb(26,109,255)"/><stop offset="100%" stop-opacity="1" style="stop-color:rgb(200,34,255)"/></linearGradient><path d=" M 1647.4 235.64 L 1666.6 235.64 L 1666.6 253.72 L 1676.2 253.72 L 1676.2 235.64 C 1676.2 230.654 1671.894 226.6 1666.6 226.6 L 1647.4 226.6 L 1647.4 217.56 L 1657 217.56 L 1657 208.52 L 1647.4 208.52 C 1642.106 208.52 1637.8 212.574 1637.8 217.56 L 1637.8 240.16 L 1647.4 240.16 L 1647.4 235.64 Z " fill="url(#_lgradient_70)"/><linearGradient id="_lgradient_71" x1="0.5" y1="-5.023857142857143" x2="0.49999999999999867" y2="2.21742857142857" gradientTransform="matrix(19.2,0,0,31.64,1637.8,249.2)" gradientUnits="userSpaceOnUse"><stop offset="0%" stop-opacity="1" style="stop-color:rgb(26,109,255)"/><stop offset="100%" stop-opacity="1" style="stop-color:rgb(200,34,255)"/></linearGradient><path d=" M 1647.4 249.2 L 1637.8 249.2 L 1637.8 271.8 C 1637.8 276.786 1642.106 280.84 1647.4 280.84 L 1657 280.84 L 1657 271.8 L 1647.4 271.8 L 1647.4 249.2 Z " fill="url(#_lgradient_71)"/><linearGradient id="_lgradient_72" x1="0.5" y1="-13.0835" x2="0.49999999999999534" y2="12.261" gradientTransform="matrix(9.6,0,0,9.04,1666.6,208.52)" gradientUnits="userSpaceOnUse"><stop offset="0%" stop-opacity="1" style="stop-color:rgb(26,109,255)"/><stop offset="100%" stop-opacity="1" style="stop-color:rgb(200,34,255)"/></linearGradient><rect x="1666.6" y="208.52" width="9.6" height="9.04" transform="matrix(1,0,0,1,0,0)" fill="url(#_lgradient_72)"/><linearGradient id="_lgradient_73" x1="0.5" y1="-3.7381428571428574" x2="0.49999999999999867" y2="3.5031428571428553" gradientTransform="matrix(28.8,0,0,31.64,1685.8,208.52)" gradientUnits="userSpaceOnUse"><stop offset="0%" stop-opacity="1" style="stop-color:rgb(26,109,255)"/><stop offset="100%" stop-opacity="1" style="stop-color:rgb(200,34,255)"/></linearGradient><path d=" M 1705 208.52 L 1685.8 208.52 L 1685.8 217.56 L 1705 217.56 L 1705 240.16 L 1714.6 240.16 L 1714.6 217.56 C 1714.6 212.574 1710.294 208.52 1705 208.52 Z " fill="url(#_lgradient_73)"/><linearGradient id="_lgradient_74" x1="0.5" y1="-9.54175" x2="0.49999999999999767" y2="3.1304999999999996" gradientTransform="matrix(19.2,0,0,18.08,1666.6,262.76)" gradientUnits="userSpaceOnUse"><stop offset="0%" stop-opacity="1" style="stop-color:rgb(26,109,255)"/><stop offset="100%" stop-opacity="1" style="stop-color:rgb(200,34,255)"/></linearGradient><path d=" M 1676.2 262.76 L 1666.6 262.76 L 1666.6 271.8 C 1666.6 276.786 1670.906 280.84 1676.2 280.84 L 1685.8 280.84 L 1685.8 271.8 L 1676.2 271.8 L 1676.2 262.76 Z " fill="url(#_lgradient_74)"/><linearGradient id="_lgradient_75" x1="0.5" y1="-5.023857142857143" x2="0.49999999999999867" y2="2.21742857142857" gradientTransform="matrix(19.2,0,0,31.64,1695.4,249.2)" gradientUnits="userSpaceOnUse"><stop offset="0%" stop-opacity="1" style="stop-color:rgb(26,109,255)"/><stop offset="100%" stop-opacity="1" style="stop-color:rgb(200,34,255)"/></linearGradient><path d=" M 1705 271.8 L 1695.4 271.8 L 1695.4 280.84 L 1705 280.84 C 1710.294 280.84 1714.6 276.786 1714.6 271.8 L 1714.6 249.2 L 1705 249.2 L 1705 271.8 Z " fill="url(#_lgradient_75)"/><linearGradient id="_lgradient_76" x1="0.5" y1="-8.54175" x2="0.49999999999999767" y2="4.1305" gradientTransform="matrix(14.4,0,0,18.08,1685.8,244.68)" gradientUnits="userSpaceOnUse"><stop offset="0%" stop-opacity="1" style="stop-color:rgb(26,109,255)"/><stop offset="100%" stop-opacity="1" style="stop-color:rgb(200,34,255)"/></linearGradient><path d=" M 1700.2 262.76 L 1700.2 253.72 C 1700.2 248.734 1695.894 244.68 1690.6 244.68 L 1685.8 244.68 L 1685.8 253.72 L 1690.6 253.72 L 1690.6 262.76 L 1700.2 262.76 Z " fill="url(#_lgradient_76)"/><linearGradient id="_lgradient_77" x1="0.5" y1="-15.0835" x2="0.49999999999999534" y2="10.261" gradientTransform="matrix(9.6,0,0,9.04,1690.6,226.6)" gradientUnits="userSpaceOnUse"><stop offset="0%" stop-opacity="1" style="stop-color:rgb(26,109,255)"/><stop offset="100%" stop-opacity="1" style="stop-color:rgb(200,34,255)"/></linearGradient><rect x="1690.6" y="226.6" width="9.6" height="9.04" transform="matrix(1,0,0,1,0,0)" fill="url(#_lgradient_77)"/><linearGradient id="_lgradient_78" x1="0.5" y1="-18.0835" x2="0.49999999999999534" y2="7.260999999999999" gradientTransform="matrix(9.6,0,0,9.04,1652.2,253.72)" gradientUnits="userSpaceOnUse"><stop offset="0%" stop-opacity="1" style="stop-color:rgb(26,109,255)"/><stop offset="100%" stop-opacity="1" style="stop-color:rgb(200,34,255)"/></linearGradient><rect x="1652.2" y="253.72" width="9.6" height="9.04" transform="matrix(1,0,0,1,0,0)" fill="url(#_lgradient_78)"/><linearGradient id="_lgradient_79" x1="0.5" y1="0" x2="0.4999999999999998" y2="1.15625" gradientTransform="matrix(19.2,0,0,18.08,1580.2,154.28)" gradientUnits="userSpaceOnUse"><stop offset="0%" stop-opacity="1" style="stop-color:rgb(109,199,255)"/><stop offset="100%" stop-opacity="1" style="stop-color:rgb(230,171,255)"/></linearGradient><rect x="1580.2" y="154.28" width="19.2" height="18.08" transform="matrix(1,0,0,1,0,0)" fill="url(#_lgradient_79)"/></g><g><linearGradient id="_lgradient_80" x1="0.5" y1="0" x2="0.4999999999999998" y2="1.0954999999999995" gradientTransform="matrix(9.6,0,0,9.12,1546.6,711.96)" gradientUnits="userSpaceOnUse"><stop offset="0%" stop-opacity="1" style="stop-color:rgb(109,199,255)"/><stop offset="100%" stop-opacity="1" style="stop-color:rgb(230,171,255)"/></linearGradient><rect x="1546.6" y="711.96" width="9.6" height="9.12" transform="matrix(1,0,0,1,0,0)" fill="url(#_lgradient_80)"/><linearGradient id="_lgradient_81" x1="0.5" y1="0" x2="0.4999999999999998" y2="1.15625" gradientTransform="matrix(9.6,0,0,9.12,1589.8,670.92)" gradientUnits="userSpaceOnUse"><stop offset="0%" stop-opacity="1" style="stop-color:rgb(109,199,255)"/><stop offset="100%" stop-opacity="1" style="stop-color:rgb(230,171,255)"/></linearGradient><rect x="1589.8" y="670.92" width="9.6" height="9.12" transform="matrix(1,0,0,1,0,0)" fill="url(#_lgradient_81)"/><linearGradient id="_lgradient_82" x1="0.5" y1="-0.0033400000000000096" x2="0.49999999999999983" y2="1.01044" gradientTransform="matrix(120,0,0,114,1513,639)" gradientUnits="userSpaceOnUse"><stop offset="0%" stop-opacity="1" style="stop-color:rgb(26,109,255)"/><stop offset="100%" stop-opacity="1" style="stop-color:rgb(200,34,255)"/></linearGradient><path d=" M 1621 639 L 1525 639 C 1518.383 639 1513 644.114 1513 650.4 L 1513 741.6 C 1513 747.886 1518.383 753 1525 753 L 1621 753 C 1627.617 753 1633 747.886 1633 741.6 L 1633 650.4 C 1633 644.114 1627.617 639 1621 639 Z  M 1628.2 741.6 C 1628.2 745.371 1624.97 748.44 1621 748.44 L 1525 748.44 C 1521.03 748.44 1517.8 745.371 1517.8 741.6 L 1517.8 650.4 C 1517.8 646.629 1521.03 643.56 1525 643.56 L 1621 643.56 C 1624.97 643.56 1628.2 646.629 1628.2 650.4 L 1628.2 741.6 Z " fill="url(#_lgradient_82)"/><linearGradient id="_lgradient_83" x1="0.5" y1="-1.6354375" x2="0.49999999999999944" y2="1.532625" gradientTransform="matrix(38.4,0,0,36.48,1532.2,698.28)" gradientUnits="userSpaceOnUse"><stop offset="0%" stop-opacity="1" style="stop-color:rgb(26,109,255)"/><stop offset="100%" stop-opacity="1" style="stop-color:rgb(200,34,255)"/></linearGradient><path d=" M 1565.8 698.28 L 1537 698.28 C 1534.353 698.28 1532.2 700.325 1532.2 702.84 L 1532.2 730.2 C 1532.2 732.715 1534.353 734.76 1537 734.76 L 1565.8 734.76 C 1568.447 734.76 1570.6 732.715 1570.6 730.2 L 1570.6 702.84 C 1570.6 700.325 1568.447 698.28 1565.8 698.28 Z  M 1537 730.2 L 1537 702.84 L 1565.8 702.84 L 1565.805 730.2 L 1537 730.2 Z " fill="url(#_lgradient_83)"/><linearGradient id="_lgradient_84" x1="0.5" y1="-3.770875" x2="0.49999999999999883" y2="2.56525" gradientTransform="matrix(19.2,0,0,18.24,1541.8,707.4)" gradientUnits="userSpaceOnUse"><stop offset="0%" stop-opacity="1" style="stop-color:rgb(26,109,255)"/><stop offset="100%" stop-opacity="1" style="stop-color:rgb(200,34,255)"/></linearGradient><path d=" M 1556.2 707.4 L 1546.6 707.4 C 1543.953 707.4 1541.8 709.445 1541.8 711.96 L 1541.8 721.08 C 1541.8 723.595 1543.953 725.64 1546.6 725.64 L 1556.2 725.64 C 1558.847 725.64 1561 723.595 1561 721.08 L 1561 711.96 C 1561 709.445 1558.847 707.4 1556.2 707.4 Z  M 1546.6 721.08 L 1546.6 711.96 L 1556.2 711.96 L 1556.205 721.08 L 1546.6 721.08 Z " fill="url(#_lgradient_84)"/><linearGradient id="_lgradient_85" x1="0.5" y1="-0.5104375" x2="0.49999999999999944" y2="2.657625" gradientTransform="matrix(38.4,0,0,36.48,1575.4,657.24)" gradientUnits="userSpaceOnUse"><stop offset="0%" stop-opacity="1" style="stop-color:rgb(26,109,255)"/><stop offset="100%" stop-opacity="1" style="stop-color:rgb(200,34,255)"/></linearGradient><path d=" M 1609 657.24 L 1580.2 657.24 C 1577.553 657.24 1575.4 659.285 1575.4 661.8 L 1575.4 689.16 C 1575.4 691.675 1577.553 693.72 1580.2 693.72 L 1609 693.72 C 1611.647 693.72 1613.8 691.675 1613.8 689.16 L 1613.8 661.8 C 1613.8 659.285 1611.647 657.24 1609 657.24 Z  M 1580.2 689.16 L 1580.2 661.8 L 1609 661.8 L 1609.005 689.16 L 1580.2 689.16 Z " fill="url(#_lgradient_85)"/><linearGradient id="_lgradient_86" x1="0.5" y1="-1.520875" x2="0.49999999999999883" y2="4.81525" gradientTransform="matrix(19.2,0,0,18.24,1585,666.36)" gradientUnits="userSpaceOnUse"><stop offset="0%" stop-opacity="1" style="stop-color:rgb(26,109,255)"/><stop offset="100%" stop-opacity="1" style="stop-color:rgb(200,34,255)"/></linearGradient><path d=" M 1599.4 666.36 L 1589.8 666.36 C 1587.153 666.36 1585 668.405 1585 670.92 L 1585 680.04 C 1585 682.555 1587.153 684.6 1589.8 684.6 L 1599.4 684.6 C 1602.047 684.6 1604.2 682.555 1604.2 680.04 L 1604.2 670.92 C 1604.2 668.405 1602.047 666.36 1599.4 666.36 Z  M 1589.8 680.04 L 1589.8 670.92 L 1599.4 670.92 L 1599.405 680.04 L 1589.8 680.04 Z " fill="url(#_lgradient_86)"/><linearGradient id="_lgradient_87" x1="0.5" y1="-0.5104375" x2="0.49999999999999944" y2="2.657625" gradientTransform="matrix(38.4,0,0,36.48,1532.2,657.24)" gradientUnits="userSpaceOnUse"><stop offset="0%" stop-opacity="1" style="stop-color:rgb(26,109,255)"/><stop offset="100%" stop-opacity="1" style="stop-color:rgb(200,34,255)"/></linearGradient><path d=" M 1565.8 657.24 L 1537 657.24 C 1534.353 657.24 1532.2 659.285 1532.2 661.8 L 1532.2 689.16 C 1532.2 691.675 1534.353 693.72 1537 693.72 L 1565.8 693.72 C 1568.447 693.72 1570.6 691.675 1570.6 689.16 L 1570.6 661.8 C 1570.6 659.285 1568.447 657.24 1565.8 657.24 Z  M 1537 689.16 L 1537 661.8 L 1565.8 661.8 L 1565.805 689.16 L 1537 689.16 Z " fill="url(#_lgradient_87)"/><linearGradient id="_lgradient_88" x1="0.5" y1="-1.520875" x2="0.49999999999999883" y2="4.81525" gradientTransform="matrix(19.2,0,0,18.24,1541.8,666.36)" gradientUnits="userSpaceOnUse"><stop offset="0%" stop-opacity="1" style="stop-color:rgb(26,109,255)"/><stop offset="100%" stop-opacity="1" style="stop-color:rgb(200,34,255)"/></linearGradient><path d=" M 1556.2 666.36 L 1546.6 666.36 C 1543.953 666.36 1541.8 668.405 1541.8 670.92 L 1541.8 680.04 C 1541.8 682.555 1543.953 684.6 1546.6 684.6 L 1556.2 684.6 C 1558.847 684.6 1561 682.555 1561 680.04 L 1561 670.92 C 1561 668.405 1558.847 666.36 1556.2 666.36 Z  M 1546.6 680.04 L 1546.6 670.92 L 1556.2 670.92 L 1556.205 680.04 L 1546.6 680.04 Z " fill="url(#_lgradient_88)"/><linearGradient id="_lgradient_89" x1="0.5" y1="-2.6167000000000002" x2="0.49999999999999906" y2="2.4522" gradientTransform="matrix(19.2,0,0,22.8,1575.4,698.28)" gradientUnits="userSpaceOnUse"><stop offset="0%" stop-opacity="1" style="stop-color:rgb(26,109,255)"/><stop offset="100%" stop-opacity="1" style="stop-color:rgb(200,34,255)"/></linearGradient><path d=" M 1580.2 711.96 L 1589.8 711.96 L 1589.8 721.08 L 1594.6 721.08 L 1594.6 711.96 C 1594.6 709.445 1592.447 707.4 1589.8 707.4 L 1580.2 707.4 L 1580.2 702.84 L 1585 702.84 L 1585 698.28 L 1580.2 698.28 C 1577.553 698.28 1575.4 700.325 1575.4 702.84 L 1575.4 714.24 L 1580.2 714.24 L 1580.2 711.96 Z " fill="url(#_lgradient_89)"/><linearGradient id="_lgradient_90" x1="0.5" y1="-5.023857142857143" x2="0.49999999999999867" y2="2.21742857142857" gradientTransform="matrix(9.6,0,0,15.96,1575.4,718.8)" gradientUnits="userSpaceOnUse"><stop offset="0%" stop-opacity="1" style="stop-color:rgb(26,109,255)"/><stop offset="100%" stop-opacity="1" style="stop-color:rgb(200,34,255)"/></linearGradient><path d=" M 1580.2 718.8 L 1575.4 718.8 L 1575.4 730.2 C 1575.4 732.715 1577.553 734.76 1580.2 734.76 L 1585 734.76 L 1585 730.2 L 1580.2 730.2 L 1580.2 718.8 Z " fill="url(#_lgradient_90)"/><linearGradient id="_lgradient_91" x1="0.5" y1="-13.0835" x2="0.49999999999999534" y2="12.261" gradientTransform="matrix(4.8,0,0,4.56,1589.8,698.28)" gradientUnits="userSpaceOnUse"><stop offset="0%" stop-opacity="1" style="stop-color:rgb(26,109,255)"/><stop offset="100%" stop-opacity="1" style="stop-color:rgb(200,34,255)"/></linearGradient><rect x="1589.8" y="698.28" width="4.8" height="4.56" transform="matrix(1,0,0,1,0,0)" fill="url(#_lgradient_91)"/><linearGradient id="_lgradient_92" x1="0.5" y1="-3.7381428571428574" x2="0.49999999999999867" y2="3.5031428571428553" gradientTransform="matrix(14.4,0,0,15.96,1599.4,698.28)" gradientUnits="userSpaceOnUse"><stop offset="0%" stop-opacity="1" style="stop-color:rgb(26,109,255)"/><stop offset="100%" stop-opacity="1" style="stop-color:rgb(200,34,255)"/></linearGradient><path d=" M 1609 698.28 L 1599.4 698.28 L 1599.4 702.84 L 1609 702.84 L 1609 714.24 L 1613.8 714.24 L 1613.8 702.84 C 1613.8 700.325 1611.647 698.28 1609 698.28 Z " fill="url(#_lgradient_92)"/><linearGradient id="_lgradient_93" x1="0.5" y1="-9.54175" x2="0.49999999999999767" y2="3.1304999999999996" gradientTransform="matrix(9.6,0,0,9.12,1589.8,725.64)" gradientUnits="userSpaceOnUse"><stop offset="0%" stop-opacity="1" style="stop-color:rgb(26,109,255)"/><stop offset="100%" stop-opacity="1" style="stop-color:rgb(200,34,255)"/></linearGradient><path d=" M 1594.6 725.64 L 1589.8 725.64 L 1589.8 730.2 C 1589.8 732.715 1591.953 734.76 1594.6 734.76 L 1599.4 734.76 L 1599.4 730.2 L 1594.6 730.2 L 1594.6 725.64 Z " fill="url(#_lgradient_93)"/><linearGradient id="_lgradient_94" x1="0.5" y1="-5.023857142857143" x2="0.49999999999999867" y2="2.21742857142857" gradientTransform="matrix(9.6,0,0,15.96,1604.2,718.8)" gradientUnits="userSpaceOnUse"><stop offset="0%" stop-opacity="1" style="stop-color:rgb(26,109,255)"/><stop offset="100%" stop-opacity="1" style="stop-color:rgb(200,34,255)"/></linearGradient><path d=" M 1609 730.2 L 1604.2 730.2 L 1604.2 734.76 L 1609 734.76 C 1611.647 734.76 1613.8 732.715 1613.8 730.2 L 1613.8 718.8 L 1609 718.8 L 1609 730.2 Z " fill="url(#_lgradient_94)"/><linearGradient id="_lgradient_95" x1="0.5" y1="-8.54175" x2="0.49999999999999767" y2="4.1305" gradientTransform="matrix(7.2,0,0,9.12,1599.4,716.52)" gradientUnits="userSpaceOnUse"><stop offset="0%" stop-opacity="1" style="stop-color:rgb(26,109,255)"/><stop offset="100%" stop-opacity="1" style="stop-color:rgb(200,34,255)"/></linearGradient><path d=" M 1606.6 725.64 L 1606.6 721.08 C 1606.6 718.565 1604.447 716.52 1601.8 716.52 L 1599.4 716.52 L 1599.4 721.08 L 1601.8 721.08 L 1601.8 725.64 L 1606.6 725.64 Z " fill="url(#_lgradient_95)"/><linearGradient id="_lgradient_96" x1="0.5" y1="-15.0835" x2="0.49999999999999534" y2="10.261" gradientTransform="matrix(4.8,0,0,4.56,1601.8,707.4)" gradientUnits="userSpaceOnUse"><stop offset="0%" stop-opacity="1" style="stop-color:rgb(26,109,255)"/><stop offset="100%" stop-opacity="1" style="stop-color:rgb(200,34,255)"/></linearGradient><rect x="1601.8" y="707.4" width="4.8" height="4.56" transform="matrix(1,0,0,1,0,0)" fill="url(#_lgradient_96)"/><linearGradient id="_lgradient_97" x1="0.5" y1="-18.0835" x2="0.49999999999999534" y2="7.260999999999999" gradientTransform="matrix(4.8,0,0,4.56,1582.6,721.08)" gradientUnits="userSpaceOnUse"><stop offset="0%" stop-opacity="1" style="stop-color:rgb(26,109,255)"/><stop offset="100%" stop-opacity="1" style="stop-color:rgb(200,34,255)"/></linearGradient><rect x="1582.6" y="721.08" width="4.8" height="4.56" transform="matrix(1,0,0,1,0,0)" fill="url(#_lgradient_97)"/><linearGradient id="_lgradient_98" x1="0.5" y1="0" x2="0.4999999999999998" y2="1.15625" gradientTransform="matrix(9.6,0,0,9.12,1546.6,670.92)" gradientUnits="userSpaceOnUse"><stop offset="0%" stop-opacity="1" style="stop-color:rgb(109,199,255)"/><stop offset="100%" stop-opacity="1" style="stop-color:rgb(230,171,255)"/></linearGradient><rect x="1546.6" y="670.92" width="9.6" height="9.12" transform="matrix(1,0,0,1,0,0)" fill="url(#_lgradient_98)"/></g><g><linearGradient id="_lgradient_99" x1="0.5" y1="0" x2="0.4999999999999998" y2="1.0954999999999995" gradientTransform="matrix(12.48,0,0,11.84,162.68,263.72)" gradientUnits="userSpaceOnUse"><stop offset="0%" stop-opacity="1" style="stop-color:rgb(109,199,255)"/><stop offset="100%" stop-opacity="1" style="stop-color:rgb(230,171,255)"/></linearGradient><rect x="162.68" y="263.72" width="12.48" height="11.84" transform="matrix(1,0,0,1,0,0)" fill="url(#_lgradient_99)"/><linearGradient id="_lgradient_100" x1="0.5" y1="0" x2="0.4999999999999998" y2="1.15625" gradientTransform="matrix(12.48,0,0,11.84,218.84,210.44)" gradientUnits="userSpaceOnUse"><stop offset="0%" stop-opacity="1" style="stop-color:rgb(109,199,255)"/><stop offset="100%" stop-opacity="1" style="stop-color:rgb(230,171,255)"/></linearGradient><rect x="218.84" y="210.44" width="12.48" height="11.84" transform="matrix(1,0,0,1,0,0)" fill="url(#_lgradient_100)"/><linearGradient id="_lgradient_101" x1="0.5" y1="-0.0033400000000000096" x2="0.49999999999999983" y2="1.01044" gradientTransform="matrix(156,0,0,148,119,169)" gradientUnits="userSpaceOnUse"><stop offset="0%" stop-opacity="1" style="stop-color:rgb(26,109,255)"/><stop offset="100%" stop-opacity="1" style="stop-color:rgb(200,34,255)"/></linearGradient><path d=" M 259.4 169 L 134.6 169 C 125.998 169 119 175.639 119 183.8 L 119 302.2 C 119 310.361 125.998 317 134.6 317 L 259.4 317 C 268.002 317 275 310.361 275 302.2 L 275 183.8 C 275 175.639 268.002 169 259.4 169 Z  M 268.76 302.2 C 268.76 307.096 264.56 311.08 259.4 311.08 L 134.6 311.08 C 129.44 311.08 125.24 307.096 125.24 302.2 L 125.24 183.8 C 125.24 178.904 129.44 174.92 134.6 174.92 L 259.4 174.92 C 264.56 174.92 268.76 178.904 268.76 183.8 L 268.76 302.2 Z " fill="url(#_lgradient_101)"/><linearGradient id="_lgradient_102" x1="0.5" y1="-1.6354375" x2="0.49999999999999944" y2="1.532625" gradientTransform="matrix(49.92,0,0,47.36,143.96,245.96)" gradientUnits="userSpaceOnUse"><stop offset="0%" stop-opacity="1" style="stop-color:rgb(26,109,255)"/><stop offset="100%" stop-opacity="1" style="stop-color:rgb(200,34,255)"/></linearGradient><path d=" M 187.64 245.96 L 150.2 245.96 C 146.759 245.96 143.96 248.615 143.96 251.88 L 143.96 287.4 C 143.96 290.665 146.759 293.32 150.2 293.32 L 187.64 293.32 C 191.081 293.32 193.88 290.665 193.88 287.4 L 193.88 251.88 C 193.88 248.615 191.081 245.96 187.64 245.96 Z  M 150.2 287.4 L 150.2 251.88 L 187.64 251.88 L 187.646 287.4 L 150.2 287.4 Z " fill="url(#_lgradient_102)"/><linearGradient id="_lgradient_103" x1="0.5" y1="-3.770875" x2="0.49999999999999883" y2="2.56525" gradientTransform="matrix(24.96,0,0,23.68,156.44,257.8)" gradientUnits="userSpaceOnUse"><stop offset="0%" stop-opacity="1" style="stop-color:rgb(26,109,255)"/><stop offset="100%" stop-opacity="1" style="stop-color:rgb(200,34,255)"/></linearGradient><path d=" M 175.16 257.8 L 162.68 257.8 C 159.239 257.8 156.44 260.455 156.44 263.72 L 156.44 275.56 C 156.44 278.825 159.239 281.48 162.68 281.48 L 175.16 281.48 C 178.601 281.48 181.4 278.825 181.4 275.56 L 181.4 263.72 C 181.4 260.455 178.601 257.8 175.16 257.8 Z  M 162.68 275.56 L 162.68 263.72 L 175.16 263.72 L 175.166 275.56 L 162.68 275.56 Z " fill="url(#_lgradient_103)"/><linearGradient id="_lgradient_104" x1="0.5" y1="-0.5104375" x2="0.49999999999999944" y2="2.657625" gradientTransform="matrix(49.92,0,0,47.36,200.12,192.68)" gradientUnits="userSpaceOnUse"><stop offset="0%" stop-opacity="1" style="stop-color:rgb(26,109,255)"/><stop offset="100%" stop-opacity="1" style="stop-color:rgb(200,34,255)"/></linearGradient><path d=" M 243.8 192.68 L 206.36 192.68 C 202.919 192.68 200.12 195.335 200.12 198.6 L 200.12 234.12 C 200.12 237.385 202.919 240.04 206.36 240.04 L 243.8 240.04 C 247.241 240.04 250.04 237.385 250.04 234.12 L 250.04 198.6 C 250.04 195.335 247.241 192.68 243.8 192.68 Z  M 206.36 234.12 L 206.36 198.6 L 243.8 198.6 L 243.806 234.12 L 206.36 234.12 Z " fill="url(#_lgradient_104)"/><linearGradient id="_lgradient_105" x1="0.5" y1="-1.520875" x2="0.49999999999999883" y2="4.81525" gradientTransform="matrix(24.96,0,0,23.68,212.6,204.52)" gradientUnits="userSpaceOnUse"><stop offset="0%" stop-opacity="1" style="stop-color:rgb(26,109,255)"/><stop offset="100%" stop-opacity="1" style="stop-color:rgb(200,34,255)"/></linearGradient><path d=" M 231.32 204.52 L 218.84 204.52 C 215.399 204.52 212.6 207.175 212.6 210.44 L 212.6 222.28 C 212.6 225.545 215.399 228.2 218.84 228.2 L 231.32 228.2 C 234.761 228.2 237.56 225.545 237.56 222.28 L 237.56 210.44 C 237.56 207.175 234.761 204.52 231.32 204.52 Z  M 218.84 222.28 L 218.84 210.44 L 231.32 210.44 L 231.326 222.28 L 218.84 222.28 Z " fill="url(#_lgradient_105)"/><linearGradient id="_lgradient_106" x1="0.5" y1="-0.5104375" x2="0.49999999999999944" y2="2.657625" gradientTransform="matrix(49.92,0,0,47.36,143.96,192.68)" gradientUnits="userSpaceOnUse"><stop offset="0%" stop-opacity="1" style="stop-color:rgb(26,109,255)"/><stop offset="100%" stop-opacity="1" style="stop-color:rgb(200,34,255)"/></linearGradient><path d=" M 187.64 192.68 L 150.2 192.68 C 146.759 192.68 143.96 195.335 143.96 198.6 L 143.96 234.12 C 143.96 237.385 146.759 240.04 150.2 240.04 L 187.64 240.04 C 191.081 240.04 193.88 237.385 193.88 234.12 L 193.88 198.6 C 193.88 195.335 191.081 192.68 187.64 192.68 Z  M 150.2 234.12 L 150.2 198.6 L 187.64 198.6 L 187.646 234.12 L 150.2 234.12 Z " fill="url(#_lgradient_106)"/><linearGradient id="_lgradient_107" x1="0.5" y1="-1.520875" x2="0.49999999999999883" y2="4.81525" gradientTransform="matrix(24.96,0,0,23.68,156.44,204.52)" gradientUnits="userSpaceOnUse"><stop offset="0%" stop-opacity="1" style="stop-color:rgb(26,109,255)"/><stop offset="100%" stop-opacity="1" style="stop-color:rgb(200,34,255)"/></linearGradient><path d=" M 175.16 204.52 L 162.68 204.52 C 159.239 204.52 156.44 207.175 156.44 210.44 L 156.44 222.28 C 156.44 225.545 159.239 228.2 162.68 228.2 L 175.16 228.2 C 178.601 228.2 181.4 225.545 181.4 222.28 L 181.4 210.44 C 181.4 207.175 178.601 204.52 175.16 204.52 Z  M 162.68 222.28 L 162.68 210.44 L 175.16 210.44 L 175.166 222.28 L 162.68 222.28 Z " fill="url(#_lgradient_107)"/><linearGradient id="_lgradient_108" x1="0.5" y1="-2.6167000000000002" x2="0.49999999999999906" y2="2.4522" gradientTransform="matrix(24.96,0,0,29.6,200.12,245.96)" gradientUnits="userSpaceOnUse"><stop offset="0%" stop-opacity="1" style="stop-color:rgb(26,109,255)"/><stop offset="100%" stop-opacity="1" style="stop-color:rgb(200,34,255)"/></linearGradient><path d=" M 206.36 263.72 L 218.84 263.72 L 218.84 275.56 L 225.08 275.56 L 225.08 263.72 C 225.08 260.455 222.281 257.8 218.84 257.8 L 206.36 257.8 L 206.36 251.88 L 212.6 251.88 L 212.6 245.96 L 206.36 245.96 C 202.919 245.96 200.12 248.615 200.12 251.88 L 200.12 266.68 L 206.36 266.68 L 206.36 263.72 Z " fill="url(#_lgradient_108)"/><linearGradient id="_lgradient_109" x1="0.5" y1="-5.023857142857143" x2="0.49999999999999867" y2="2.21742857142857" gradientTransform="matrix(12.48,0,0,20.72,200.12,272.6)" gradientUnits="userSpaceOnUse"><stop offset="0%" stop-opacity="1" style="stop-color:rgb(26,109,255)"/><stop offset="100%" stop-opacity="1" style="stop-color:rgb(200,34,255)"/></linearGradient><path d=" M 206.36 272.6 L 200.12 272.6 L 200.12 287.4 C 200.12 290.665 202.919 293.32 206.36 293.32 L 212.6 293.32 L 212.6 287.4 L 206.36 287.4 L 206.36 272.6 Z " fill="url(#_lgradient_109)"/><linearGradient id="_lgradient_110" x1="0.5" y1="-13.0835" x2="0.49999999999999534" y2="12.261" gradientTransform="matrix(6.24,0,0,5.92,218.84,245.96)" gradientUnits="userSpaceOnUse"><stop offset="0%" stop-opacity="1" style="stop-color:rgb(26,109,255)"/><stop offset="100%" stop-opacity="1" style="stop-color:rgb(200,34,255)"/></linearGradient><rect x="218.84" y="245.96" width="6.24" height="5.92" transform="matrix(1,0,0,1,0,0)" fill="url(#_lgradient_110)"/><linearGradient id="_lgradient_111" x1="0.5" y1="-3.7381428571428574" x2="0.49999999999999867" y2="3.5031428571428553" gradientTransform="matrix(18.72,0,0,20.72,231.32,245.96)" gradientUnits="userSpaceOnUse"><stop offset="0%" stop-opacity="1" style="stop-color:rgb(26,109,255)"/><stop offset="100%" stop-opacity="1" style="stop-color:rgb(200,34,255)"/></linearGradient><path d=" M 243.8 245.96 L 231.32 245.96 L 231.32 251.88 L 243.8 251.88 L 243.8 266.68 L 250.04 266.68 L 250.04 251.88 C 250.04 248.615 247.241 245.96 243.8 245.96 Z " fill="url(#_lgradient_111)"/><linearGradient id="_lgradient_112" x1="0.5" y1="-9.54175" x2="0.49999999999999767" y2="3.1304999999999996" gradientTransform="matrix(12.48,0,0,11.84,218.84,281.48)" gradientUnits="userSpaceOnUse"><stop offset="0%" stop-opacity="1" style="stop-color:rgb(26,109,255)"/><stop offset="100%" stop-opacity="1" style="stop-color:rgb(200,34,255)"/></linearGradient><path d=" M 225.08 281.48 L 218.84 281.48 L 218.84 287.4 C 218.84 290.665 221.639 293.32 225.08 293.32 L 231.32 293.32 L 231.32 287.4 L 225.08 287.4 L 225.08 281.48 Z " fill="url(#_lgradient_112)"/><linearGradient id="_lgradient_113" x1="0.5" y1="-5.023857142857143" x2="0.49999999999999867" y2="2.21742857142857" gradientTransform="matrix(12.48,0,0,20.72,237.56,272.6)" gradientUnits="userSpaceOnUse"><stop offset="0%" stop-opacity="1" style="stop-color:rgb(26,109,255)"/><stop offset="100%" stop-opacity="1" style="stop-color:rgb(200,34,255)"/></linearGradient><path d=" M 243.8 287.4 L 237.56 287.4 L 237.56 293.32 L 243.8 293.32 C 247.241 293.32 250.04 290.665 250.04 287.4 L 250.04 272.6 L 243.8 272.6 L 243.8 287.4 Z " fill="url(#_lgradient_113)"/><linearGradient id="_lgradient_114" x1="0.5" y1="-8.54175" x2="0.49999999999999767" y2="4.1305" gradientTransform="matrix(9.36,0,0,11.84,231.32,269.64)" gradientUnits="userSpaceOnUse"><stop offset="0%" stop-opacity="1" style="stop-color:rgb(26,109,255)"/><stop offset="100%" stop-opacity="1" style="stop-color:rgb(200,34,255)"/></linearGradient><path d=" M 240.68 281.48 L 240.68 275.56 C 240.68 272.295 237.881 269.64 234.44 269.64 L 231.32 269.64 L 231.32 275.56 L 234.44 275.56 L 234.44 281.48 L 240.68 281.48 Z " fill="url(#_lgradient_114)"/><linearGradient id="_lgradient_115" x1="0.5" y1="-15.0835" x2="0.49999999999999534" y2="10.261" gradientTransform="matrix(6.24,0,0,5.92,234.44,257.8)" gradientUnits="userSpaceOnUse"><stop offset="0%" stop-opacity="1" style="stop-color:rgb(26,109,255)"/><stop offset="100%" stop-opacity="1" style="stop-color:rgb(200,34,255)"/></linearGradient><rect x="234.44" y="257.8" width="6.24" height="5.92" transform="matrix(1,0,0,1,0,0)" fill="url(#_lgradient_115)"/><linearGradient id="_lgradient_116" x1="0.5" y1="-18.0835" x2="0.49999999999999534" y2="7.260999999999999" gradientTransform="matrix(6.24,0,0,5.92,209.48,275.56)" gradientUnits="userSpaceOnUse"><stop offset="0%" stop-opacity="1" style="stop-color:rgb(26,109,255)"/><stop offset="100%" stop-opacity="1" style="stop-color:rgb(200,34,255)"/></linearGradient><rect x="209.48" y="275.56" width="6.24" height="5.92" transform="matrix(1,0,0,1,0,0)" fill="url(#_lgradient_116)"/><linearGradient id="_lgradient_117" x1="0.5" y1="0" x2="0.4999999999999998" y2="1.15625" gradientTransform="matrix(12.48,0,0,11.84,162.68,210.44)" gradientUnits="userSpaceOnUse"><stop offset="0%" stop-opacity="1" style="stop-color:rgb(109,199,255)"/><stop offset="100%" stop-opacity="1" style="stop-color:rgb(230,171,255)"/></linearGradient><rect x="162.68" y="210.44" width="12.48" height="11.84" transform="matrix(1,0,0,1,0,0)" fill="url(#_lgradient_117)"/></g><defs><linearGradient id="_lgradient_118" x1="0" y1="0.5" x2="1" y2="0.5"><stop offset="0%" style="stop-color:#1D6CFF"/><stop offset="100%" style="stop-color:#7744FF"/></linearGradient></defs><path d="M -60.164 639 L 394.164 639 C 434.363 639 467 671.637 467 711.836 L 467 1166.164 C 467 1206.363 434.363 1239 394.164 1239 L -60.164 1239 C -100.363 1239 -133 1206.363 -133 1166.164 L -133 711.836 C -133 671.637 -100.363 639 -60.164 639 Z" style="stroke:none;fill:url(#_lgradient_118);stroke-miterlimit:10;"/><defs><linearGradient id="_lgradient_119" x1="0" y1="0.5" x2="0.7307576022923152" y2="-0.599242415047218"><stop offset="0%" style="stop-color:#051126"/><stop offset="5.14721250021233%" style="stop-color:#07122A"/><stop offset="100%" style="stop-color:#7744FF"/></linearGradient></defs><path d="M 591.067 883 L 1054.933 883 C 1092.5 883 1123 913.5 1123 951.067 L 1123 1338.933 C 1123 1376.5 1092.5 1407 1054.933 1407 L 591.067 1407 C 553.5 1407 523 1376.5 523 1338.933 L 523 951.067 C 523 913.5 553.5 883 591.067 883 Z" style="stroke:none;fill:url(#_lgradient_119);stroke-miterlimit:10;"/><defs><linearGradient id="_lgradient_120" x1="0" y1="0.5" x2="0.7307576022923152" y2="-0.599242415047218"><stop offset="0%" style="stop-color:#051126"/><stop offset="5.14721250021233%" style="stop-color:#07122A"/><stop offset="100%" style="stop-color:#44D0FF"/></linearGradient></defs><path d="M 1259.067 818 L 1722.933 818 C 1760.5 818 1791 848.5 1791 886.067 L 1791 1273.933 C 1791 1311.5 1760.5 1342 1722.933 1342 L 1259.067 1342 C 1221.5 1342 1191 1311.5 1191 1273.933 L 1191 886.067 C 1191 848.5 1221.5 818 1259.067 818 Z" style="stroke:none;fill:url(#_lgradient_120);stroke-miterlimit:10;"/><path d="M 2308.933 204 L 1845.067 204 C 1807.5 204 1777 173.5 1777 135.933 L 1777 -251.933 C 1777 -289.5 1807.5 -320 1845.067 -320 L 2308.933 -320 C 2346.5 -320 2377 -289.5 2377 -251.933 L 2377 135.933 C 2377 173.5 2346.5 204 2308.933 204 Z" style="stroke:none;fill:#5554FF;stroke-miterlimit:10;"/><path d=" M 1597.375 409 C 1594.27 409 1591.087 410.004 1588.837 412.073 C 1586.593 414.131 1585.5 417.057 1585.5 419.917 L 1585.5 529.083 C 1585.5 531.938 1586.593 534.864 1588.843 536.932 C 1591.087 538.996 1594.27 540 1597.375 540 L 1668.625 540 C 1671.73 540 1674.913 538.996 1677.163 536.927 C 1679.408 534.864 1680.5 531.938 1680.5 529.083 L 1680.5 419.917 C 1680.5 417.062 1679.408 414.136 1677.157 412.068 C 1674.919 410.004 1671.73 409 1668.625 409 L 1597.375 409 Z  M 1597.375 419.917 L 1668.625 419.917 L 1668.625 529.083 L 1597.375 529.083 L 1597.375 419.917 Z  M 1621.125 512.708 L 1621.125 523.625 L 1644.875 523.625 L 1644.875 512.708 L 1621.125 512.708 Z " fill="rgb(80,85,255)"/><path d=" M 172.625 409 C 170.5 409 168.323 409.629 166.783 410.924 C 165.248 412.212 164.5 414.043 164.5 415.833 L 164.5 484.167 C 164.5 485.954 165.248 487.785 166.787 489.08 C 168.323 490.371 170.5 491 172.625 491 L 221.375 491 C 223.5 491 225.677 490.371 227.217 489.076 C 228.752 487.785 229.5 485.954 229.5 484.167 L 229.5 415.833 C 229.5 414.046 228.752 412.215 227.213 410.92 C 225.681 409.629 223.5 409 221.375 409 L 172.625 409 Z  M 172.625 415.833 L 221.375 415.833 L 221.375 484.167 L 172.625 484.167 L 172.625 415.833 Z  M 188.875 473.917 L 188.875 480.75 L 205.125 480.75 L 205.125 473.917 L 188.875 473.917 Z " fill="rgb(80,85,255)"/></g></svg>